<svg width="512" height="512" xmlns="http://www.w3.org/2000/svg">

 <g>
  <title>background</title>
  <rect fill="none" id="canvas_background" height="402" width="582" y="-1" x="-1"/>
 </g>
 <g>
  <title>Layer 1</title>
  <path stroke="null" id="svg_1" d="m370.118047,416.620746l-0.004221,31.644485l13.773268,0.003463l-0.006331,51.235413l-195.707455,-0.03117l-38.443384,0l0,-51.324305l12.403644,0l0.004221,-31.561365l11.955193,0c-0.899014,-7.268384 -1.638695,-14.467502 -1.764261,-21.667774c-0.113959,-7.720927 0.614115,-15.18903 1.998511,-22.450487c3.535909,-18.554236 11.352685,-35.752 20.326993,-52.342526c15.80238,-29.074691 36.557777,-53.640122 58.054965,-77.601777c2.304514,-2.452041 4.482406,-5.058777 8.207192,-9.340613c-18.84341,4.814035 -34.924357,0.42599 -50.720406,-5.585204c-11.393837,-4.301461 -20.27951,-0.745771 -28.407564,8.145762c-17.173059,19.076045 -34.265925,22.180347 -55.901342,10.765197c-9.167406,-4.905236 -17.70276,-23.58877 -15.791828,-34.448632c0.61517,-3.470261 1.957359,-7.544297 0.932779,-10.582795c-3.313266,-10.550471 1.785365,-15.970589 8.493146,-21.910207c15.593454,-13.862573 30.999087,-28.103803 45.709355,-43.01923c7.40209,-7.492347 12.974497,-17.074238 19.60314,-25.447426c2.857428,-3.574161 6.124266,-7.129851 9.849053,-9.495308c4.607972,-2.969232 9.895481,-4.608544 14.914973,-6.818151c10.827205,-4.815189 13.935766,-6.213222 14.83689,-13.257644l-0.140339,-1.813633c-0.480107,-6.242083 3.30588,-11.923106 8.884618,-13.331528l7.63845,-1.927923l0.006331,-45.685997l0.473776,0c23.49781,0.004618 42.81183,19.587464 45.06464,44.658541c49.867821,16.514332 79.278861,54.418217 94.074599,107.651974c13.344865,47.881751 5.290674,93.946406 -8.16182,140.027223c-8.147047,27.971042 -15.33177,56.475438 -21.175358,85.187634c-1.278879,6.439493 -1.010863,13.34769 -0.396748,20.322846l19.415317,0.001154zm-155.320429,-268.202917c5.466889,0 9.897591,-4.848668 9.897591,-10.828692s-4.430702,-10.828692 -9.897591,-10.828692s-9.897591,4.847514 -9.897591,10.828692s4.430702,10.828692 9.897591,10.828692z"/>
 </g>
</svg>